Coordinates
version=1
nRows=22
nColumns=33
inDegrees=yes

Units are S.I. units (second, meters, Newtons, ...)
Angles are in degrees.

endheader
time	ground_thorax_rot_x	ground_thorax_rot_y	ground_thorax_rot_z	ground_thorax_tx	ground_thorax_ty	ground_thorax_tz	clav_prot_r	clav_elev_r	scapula_abduction_r	scapula_elevation_r	scapula_upward_rot_r	scapula_winging_r	shoulder_elv_r	plane_of_elev_r	axial_rot_r	elbow_flexion_r	pro_sup_r	wrist_flex_r	wrist_dev_r	clav_prot_l	clav_elev_l	scapula_abduction_l	scapula_elevation_l	scapula_upward_rot_l	scapula_winging_l	shoulder_elv_l	plane_of_elev_l	axial_rot_l	elbow_flexion_l	pro_sup_l	wrist_flex_l	wrist_dev_l	
1.6000	-15.367701	-29.865794	56.202552	88.377659	784.449851	-34.124426	28.483633	-45.000000	40.035207	-45.000000	-45.000000	-4060.545555	-4068.522818	160.602449	38.682527	1081.055450	-193.870070	10.044813	12.327688	-2.278849	28.465060	-25.666798	-44.081962	-45.000000	-2803.441684	-3692.828200	133.947322	-103.582996	710.353078	56.267111	10.635103	-16.284640	
1.6100	-15.570054	-29.845105	56.171186	88.239922	783.538971	-34.782953	28.508826	-45.000000	40.003220	-45.000000	-45.000000	-4060.582997	-4068.455332	160.661768	39.046343	1081.084143	-193.887435	10.130840	12.358855	-2.242892	28.427402	-25.697842	-44.067689	-45.000000	-2803.262535	-3692.734286	133.938140	-103.755518	710.449019	56.876011	10.587081	-16.296743	
1.6200	-15.853003	-29.966874	56.236129	88.269585	782.093665	-36.184534	28.572606	-45.000000	39.953098	-45.000000	-45.000000	-4060.597277	-4068.368716	160.779367	39.649226	1081.089114	-193.918865	10.272936	12.431681	-2.222685	28.423485	-25.704023	-44.106697	-45.000000	-2802.967810	-3692.568966	133.868450	-103.991506	710.630559	57.812650	10.509033	-16.253114	
1.6300	-16.214667	-30.204187	56.394805	88.346060	780.202958	-38.136670	28.606277	-45.000000	39.886206	-45.000000	-45.000000	-4060.607145	-4068.314949	160.931546	40.345074	1081.112716	-194.031913	10.354872	12.493040	-2.062444	28.574020	-25.698671	-44.251311	-45.000000	-2802.676359	-3692.389217	133.840001	-104.305588	710.862660	58.842533	10.478957	-16.230233	
1.6400	-16.642368	-30.521606	56.620400	88.408781	777.950346	-40.485428	28.635112	-45.000000	39.801077	-45.000000	-45.000000	-4060.612579	-4068.273970	161.111193	41.123405	1081.139098	-194.188542	10.411278	12.548177	-1.825128	28.804941	-25.674575	-44.457084	-45.000000	-2802.371096	-3692.185014	133.832172	-104.649078	711.107488	59.777196	10.491281	-16.179518	
1.6500	-17.084904	-30.789186	56.801016	88.241149	775.781670	-42.561860	28.645185	-45.000000	39.708711	-45.000000	-45.000000	-4060.611429	-4068.238686	161.276367	41.832861	1081.170505	-194.367205	10.454092	12.590739	-1.585230	29.045248	-25.646168	-44.661405	-45.000000	-2802.098526	-3692.007666	133.843401	-104.942028	711.236043	60.103721	10.526673	-16.095784	
1.6600	-17.510432	-31.001283	56.946619	87.837447	773.771976	-44.317268	28.661432	-45.000000	39.626843	-45.000000	-45.000000	-4060.619677	-4068.202537	161.423764	42.453614	1081.195771	-194.540847	10.486086	12.614567	-1.356626	29.263134	-25.611818	-44.843996	-45.000000	-2801.857956	-3691.861206	133.880572	-105.194840	711.264613	59.754340	10.624003	-15.947522	
1.6700	-17.887281	-31.055839	56.956403	87.064934	772.284824	-45.268129	28.665139	-45.000000	39.554562	-45.000000	-45.000000	-4060.638773	-4068.161566	161.511839	42.886729	1081.214858	-194.679148	10.527197	12.623875	-1.216606	29.395076	-25.595901	-44.952012	-45.000000	-2801.659044	-3691.772593	133.909147	-105.350022	711.109441	58.495907	10.755525	-15.752617	
1.6800	-18.198373	-30.986823	56.872928	85.991437	771.275365	-45.578331	28.672894	-45.000000	39.501609	-45.000000	-45.000000	-4060.672246	-4068.108520	161.557014	43.136003	1081.225287	-194.779301	10.570256	12.611179	-1.134306	29.442829	-25.600500	-45.000000	-45.000000	-2801.511188	-3691.741425	133.951504	-105.460264	710.845535	56.574702	10.939817	-15.493674	
1.6900	-18.450485	-30.817452	56.698349	84.666745	770.703622	-45.376566	28.682498	-45.000000	39.469782	-45.000000	-45.000000	-4060.708481	-4068.041859	161.563145	43.241473	1081.235420	-194.841627	10.623039	12.589928	-1.115692	29.442904	-25.624308	-45.000000	-45.000000	-2801.397863	-3691.752446	133.986799	-105.555513	710.510207	54.248949	11.137076	-15.205287	
1.7000	-18.682096	-30.654934	56.519957	83.265836	770.222983	-45.226121	28.703854	-45.000000	39.453406	-45.000000	-45.000000	-4060.745007	-4067.964803	161.568413	43.317406	1081.243866	-194.876662	10.676378	12.565486	-1.095721	29.441754	-25.658376	-45.000000	-45.000000	-2801.285055	-3691.763882	134.022711	-105.713451	710.238703	52.059171	11.334980	-14.900824	
1.7100	-18.907148	-30.489337	56.320032	81.780115	769.831309	-45.116375	28.718215	-45.000000	39.438552	-45.000000	-45.000000	-4060.780753	-4067.883070	161.562940	43.369117	1081.257295	-194.886069	10.726493	12.542540	-1.073236	29.469095	-25.703999	-45.000000	-45.000000	-2801.171739	-3691.760039	134.047454	-105.910867	710.020856	50.158432	11.503636	-14.636303	
1.7200	-19.120675	-30.319911	56.105453	80.204096	769.523858	-45.038326	28.727429	-45.000000	39.423913	-45.000000	-45.000000	-4060.811452	-4067.790648	161.556819	43.385091	1081.272360	-194.875376	10.774447	12.517568	-1.040241	29.500659	-25.760722	-45.000000	-45.000000	-2801.071048	-3691.749593	134.081660	-106.142548	709.870269	48.636532	11.623802	-14.408506	
1.7300	-19.317942	-30.151194	55.881750	78.536197	769.291987	-44.984491	28.737233	-45.000000	39.415499	-45.000000	-45.000000	-4060.843826	-4067.692323	161.545260	43.386486	1081.290462	-194.844637	10.818055	12.494725	-1.005890	29.561396	-25.819117	-45.000000	-45.000000	-2800.974271	-3691.728471	134.120010	-106.397725	709.774871	47.500451	11.704424	-14.240106	
1.7400	-19.509390	-29.983395	55.645219	76.777249	769.120976	-44.946323	28.741039	-45.000000	39.408486	-45.000000	-45.000000	-4060.882492	-4067.594777	161.527102	43.382869	1081.308168	-194.793226	10.858458	12.475440	-0.974526	29.618976	-25.886333	-45.000000	-45.000000	-2800.866200	-3691.705199	134.156204	-106.666514	709.731649	46.728379	11.745140	-14.127506	
1.7500	-19.699922	-29.814199	55.396215	74.930469	768.994997	-44.915947	28.740290	-45.000000	39.397907	-45.000000	-45.000000	-4060.932016	-4067.499495	161.497760	43.384487	1081.324273	-194.718084	10.896937	12.460778	-0.951849	29.679532	-25.960078	-45.000000	-45.000000	-2800.741828	-3691.675663	134.181095	-106.935107	709.721503	46.270358	11.769322	-14.066420	
1.7600	-19.898879	-29.644616	55.128136	72.999406	768.899916	-44.886088	28.730086	-45.000000	39.382715	-45.000000	-45.000000	-4060.986933	-4067.411462	161.458613	43.388330	1081.343858	-194.616827	10.932325	12.449921	-0.934004	29.714241	-26.044568	-45.000000	-45.000000	-2800.597965	-3691.649284	134.196544	-107.198901	709.740780	46.054568	11.767472	-14.037534	
1.7700	-20.100516	-29.475802	54.848886	70.988052	768.829020	-44.853075	28.717875	-45.000000	39.368417	-45.000000	-45.000000	-4061.045341	-4067.323982	161.417079	43.390912	1081.361970	-194.488465	10.967834	12.443298	-0.917838	29.752610	-26.126997	-45.000000	-45.000000	-2800.453392	-3691.620335	134.212834	-107.457373	709.778256	45.993574	11.755567	-14.030216	
1.7800	-20.308231	-29.307889	54.557434	68.899084	768.781941	-44.815718	28.703178	-45.000000	39.353185	-45.000000	-45.000000	-4061.108202	-4067.240261	161.373155	43.388150	1081.379433	-194.332890	11.004265	12.441583	-0.904055	29.785636	-26.208853	-45.000000	-45.000000	-2800.304707	-3691.590660	134.226898	-107.708306	709.827166	46.025115	11.740141	-14.037681	
1.7900	-20.513069	-29.137411	54.263024	66.733003	768.763972	-44.775148	28.686922	-45.000000	39.340769	-45.000000	-45.000000	-4061.175089	-4067.149294	161.336443	43.366634	1081.384133	-194.154321	11.047766	12.444615	-0.886766	29.832399	-26.289880	-45.000000	-45.000000	-2800.168549	-3691.559319	134.253006	-107.949532	709.870349	46.105161	11.728169	-14.053745	
1.8000	-20.718043	-28.964653	53.963183	64.488520	768.782609	-44.732900	28.668366	-45.000000	39.331280	-45.000000	-45.000000	-4061.247315	-4067.057826	161.303196	43.328535	1081.382687	-193.955412	11.095729	12.453429	-0.868967	29.882485	-26.374329	-45.000000	-45.000000	-2800.033417	-3691.527363	134.283647	-108.172350	709.906532	46.206217	11.721521	-14.079311	
1.8100	-20.920152	-28.786658	53.658304	62.163922	768.845927	-44.690404	28.647267	-45.000000	39.325090	-45.000000	-45.000000	-4061.323731	-4066.960495	161.275597	43.269173	1081.369327	-193.742138	11.150703	12.467712	-0.848518	29.943149	-26.461947	-45.000000	-45.000000	-2799.904539	-3691.493422	134.320768	-108.373063	709.927848	46.312271	11.721525	-14.113531	
